Coordinates
version=1
nRows=5
nColumns=40
inDegrees=yes

Units are S.I. units (second, meters, Newtons, ...)
If the header above contains a line with 'inDegrees', this indicates whether rotational values are in degrees (yes) or radians (no).

endheader
time	pelvis_tilt	pelvis_list	pelvis_rotation	pelvis_tx	pelvis_ty	pelvis_tz	hip_flexion_r	hip_adduction_r	hip_rotation_r	knee_angle_r	knee_angle_r_beta	ankle_angle_r	subtalar_angle_r	mtp_angle_r	hip_flexion_l	hip_adduction_l	hip_rotation_l	knee_angle_l	knee_angle_l_beta	ankle_angle_l	subtalar_angle_l	mtp_angle_l	lumbar_extension	lumbar_bending	lumbar_rotation	arm_flex_r	arm_add_r	arm_rot_r	elbow_flex_r	pro_sup_r	wrist_flex_r	wrist_dev_r	arm_flex_l	arm_add_l	arm_rot_l	elbow_flex_l	pro_sup_l	wrist_flex_l	wrist_dev_l
      4.88000000	    -16.97840841	     -1.83506465	      6.48733002	     -0.28971666	      0.93343800	     -0.95094877	     26.74359960	    -14.68989386	    -24.71035017	     19.93231994	      0.34788461	      2.94703338	      0.00000000	      0.00000000	     29.44098881	    -12.28792089	     -8.83442999	     20.91948416	      0.36511388	      3.73945758	      0.00000000	      0.00000000	     -9.04391716	      1.05778883	     -7.41144382	    -21.04180284	    -39.93588694	     30.95090758	     87.69590653	     87.16708516	      0.00000000	      0.00000000	    -26.27659758	    -38.95644049	     26.45971430	     85.02039526	     87.22952595	      0.00000000	      0.00000000
      4.88500000	    -16.59043373	     -1.87272967	      6.47391687	     -0.28764278	      0.93659776	     -0.95072078	     25.54763498	    -14.20805890	    -24.78987009	     18.45450508	      0.32209188	      2.06973102	      0.00000000	      0.00000000	     28.26476489	    -12.25047427	     -8.82116091	     19.61389807	      0.34232710	      2.99700130	      0.00000000	      0.00000000	     -8.97784975	      1.10721425	     -7.35295260	    -21.36816511	    -39.80706007	     30.57393414	     87.74200686	     87.17354790	      0.00000000	      0.00000000	    -26.57879741	    -38.95723881	     26.08087649	     85.26626339	     87.23207593	      0.00000000	      0.00000000
      4.89000000	    -16.27252153	     -1.88148900	      6.42564748	     -0.28565172	      0.93949180	     -0.95060426	     24.60821599	    -13.84871516	    -24.74251492	     17.34625599	      0.30274928	      1.25546303	      0.00000000	      0.00000000	     27.19412540	    -12.17665379	     -8.85600844	     18.38256148	      0.32083622	      2.23411698	      0.00000000	      0.00000000	     -8.81902023	      1.12955659	     -7.21494426	    -21.67582724	    -39.75161565	     30.26154267	     87.78740613	     87.17466301	      0.00000000	      0.00000000	    -26.87520737	    -39.03586467	     25.75418126	     85.58397216	     87.23422200	      0.00000000	      0.00000000
      4.89500000	    -15.95407437	     -1.84896361	      6.40692004	     -0.28356106	      0.94212430	     -0.95038322	     23.54804018	    -13.48407854	    -24.81520874	     16.01349391	      0.27948819	      0.51482770	      0.00000000	      0.00000000	     26.11897201	    -12.07050015	     -8.87975313	     17.17818458	      0.29981588	      1.46261771	      0.00000000	      0.00000000	     -8.68894046	      1.08770736	     -7.15063369	    -22.03487159	    -39.66025486	     29.87556969	     87.86154414	     87.16689514	      0.00000000	      0.00000000	    -27.24548005	    -39.09488769	     25.42680632	     85.91606496	     87.22739997	      0.00000000	      0.00000000
      4.90000000	    -15.69209887	     -1.77740498	      6.28578254	     -0.28166319	      0.94455950	     -0.95016141	     22.69827234	    -13.18272880	    -24.62997917	     14.92558019	      0.26050052	     -0.20447256	      0.00000000	      0.00000000	     25.09207292	    -11.94941635	     -8.99536598	     15.98488265	      0.27898883	      0.85878189	      0.00000000	      0.00000000	     -8.47618259	      0.99437830	     -6.96298963	    -22.32949924	    -39.57625251	     29.56434970	     87.93640108	     87.16888122	      0.00000000	      0.00000000	    -27.51757059	    -39.15200226	     25.08715062	     86.20248110	     87.23052348	      0.00000000	      0.00000000
